<mxfile host="app.diagrams.net" modified="2021-11-10T14:16:27.708Z" agent="5.0 (Macintosh; Intel Mac OS X 10_13_6) AppleWebKit/537.36 (KHTML, like Gecko) Chrome/95.0.4638.69 Safari/537.36" etag="jFV0bBkWBZkF_DHtmaWc" version="15.7.1" type="github">
  <diagram id="C5RBs43oDa-KdzZeNtuy" name="Page-1">
    <mxGraphModel dx="1340" dy="639" grid="1" gridSize="10" guides="1" tooltips="1" connect="1" arrows="1" fold="1" page="1" pageScale="1" pageWidth="827" pageHeight="1169" math="0" shadow="0">
      <root>
        <mxCell id="WIyWlLk6GJQsqaUBKTNV-0" />
        <mxCell id="WIyWlLk6GJQsqaUBKTNV-1" parent="WIyWlLk6GJQsqaUBKTNV-0" />
        <mxCell id="mQBNeWxecXQvB-bDdUXO-1" value="" style="edgeStyle=orthogonalEdgeStyle;rounded=0;orthogonalLoop=1;jettySize=auto;html=1;" edge="1" parent="WIyWlLk6GJQsqaUBKTNV-1" source="WIyWlLk6GJQsqaUBKTNV-3" target="mQBNeWxecXQvB-bDdUXO-0">
          <mxGeometry relative="1" as="geometry" />
        </mxCell>
        <mxCell id="mQBNeWxecXQvB-bDdUXO-10" value="Yes" style="edgeLabel;html=1;align=center;verticalAlign=middle;resizable=0;points=[];" vertex="1" connectable="0" parent="mQBNeWxecXQvB-bDdUXO-1">
          <mxGeometry x="-0.2" relative="1" as="geometry">
            <mxPoint as="offset" />
          </mxGeometry>
        </mxCell>
        <mxCell id="mQBNeWxecXQvB-bDdUXO-6" value="" style="edgeStyle=orthogonalEdgeStyle;rounded=0;orthogonalLoop=1;jettySize=auto;html=1;" edge="1" parent="WIyWlLk6GJQsqaUBKTNV-1" source="WIyWlLk6GJQsqaUBKTNV-3" target="mQBNeWxecXQvB-bDdUXO-5">
          <mxGeometry relative="1" as="geometry" />
        </mxCell>
        <mxCell id="mQBNeWxecXQvB-bDdUXO-7" value="No" style="edgeLabel;html=1;align=center;verticalAlign=middle;resizable=0;points=[];" vertex="1" connectable="0" parent="mQBNeWxecXQvB-bDdUXO-6">
          <mxGeometry x="-0.16" y="3" relative="1" as="geometry">
            <mxPoint as="offset" />
          </mxGeometry>
        </mxCell>
        <mxCell id="WIyWlLk6GJQsqaUBKTNV-3" value="Start with question:&lt;br&gt;Do you want to play a game of BlackJack?&amp;nbsp; Type &#39;y&#39; or &#39;n&#39;:&amp;nbsp;" style="rounded=1;whiteSpace=wrap;html=1;fontSize=12;glass=0;strokeWidth=1;shadow=0;" parent="WIyWlLk6GJQsqaUBKTNV-1" vertex="1">
          <mxGeometry x="140" y="60" width="160" height="60" as="geometry" />
        </mxCell>
        <mxCell id="mQBNeWxecXQvB-bDdUXO-3" value="" style="edgeStyle=orthogonalEdgeStyle;rounded=0;orthogonalLoop=1;jettySize=auto;html=1;" edge="1" parent="WIyWlLk6GJQsqaUBKTNV-1" source="mQBNeWxecXQvB-bDdUXO-0">
          <mxGeometry relative="1" as="geometry">
            <mxPoint x="220" y="280" as="targetPoint" />
          </mxGeometry>
        </mxCell>
        <mxCell id="mQBNeWxecXQvB-bDdUXO-0" value="1. Display Logo&lt;br&gt;2. Display two cards for Player&lt;br&gt;3. Display one card for Computer" style="whiteSpace=wrap;html=1;rounded=1;shadow=0;strokeWidth=1;glass=0;" vertex="1" parent="WIyWlLk6GJQsqaUBKTNV-1">
          <mxGeometry x="137.5" y="160" width="165" height="80" as="geometry" />
        </mxCell>
        <mxCell id="mQBNeWxecXQvB-bDdUXO-12" value="" style="edgeStyle=orthogonalEdgeStyle;rounded=0;orthogonalLoop=1;jettySize=auto;html=1;" edge="1" parent="WIyWlLk6GJQsqaUBKTNV-1">
          <mxGeometry relative="1" as="geometry">
            <mxPoint x="307.5" y="330" as="sourcePoint" />
            <mxPoint x="415" y="330" as="targetPoint" />
          </mxGeometry>
        </mxCell>
        <mxCell id="mQBNeWxecXQvB-bDdUXO-13" value="No" style="edgeLabel;html=1;align=center;verticalAlign=middle;resizable=0;points=[];" vertex="1" connectable="0" parent="mQBNeWxecXQvB-bDdUXO-12">
          <mxGeometry x="-0.0605" relative="1" as="geometry">
            <mxPoint x="1" as="offset" />
          </mxGeometry>
        </mxCell>
        <mxCell id="mQBNeWxecXQvB-bDdUXO-5" value="Game Ends -&amp;gt; Print Thanks for selecting no." style="ellipse;whiteSpace=wrap;html=1;rounded=1;shadow=0;strokeWidth=1;glass=0;fillColor=#C3ABD0;" vertex="1" parent="WIyWlLk6GJQsqaUBKTNV-1">
          <mxGeometry x="400" y="60" width="140" height="60" as="geometry" />
        </mxCell>
        <mxCell id="mQBNeWxecXQvB-bDdUXO-17" value="" style="edgeStyle=orthogonalEdgeStyle;rounded=0;orthogonalLoop=1;jettySize=auto;html=1;" edge="1" parent="WIyWlLk6GJQsqaUBKTNV-1" source="mQBNeWxecXQvB-bDdUXO-14" target="mQBNeWxecXQvB-bDdUXO-16">
          <mxGeometry relative="1" as="geometry" />
        </mxCell>
        <mxCell id="mQBNeWxecXQvB-bDdUXO-18" value="&amp;gt; 17" style="edgeLabel;html=1;align=center;verticalAlign=middle;resizable=0;points=[];" vertex="1" connectable="0" parent="mQBNeWxecXQvB-bDdUXO-17">
          <mxGeometry x="-0.5636" y="1" relative="1" as="geometry">
            <mxPoint x="1" y="-5" as="offset" />
          </mxGeometry>
        </mxCell>
        <mxCell id="mQBNeWxecXQvB-bDdUXO-14" value="Identify if player&#39;s cards &amp;gt; 21&lt;br&gt;Identify if computer has &amp;lt;17" style="rhombus;whiteSpace=wrap;html=1;rounded=1;shadow=0;strokeWidth=1;fillColor=none;glass=0;" vertex="1" parent="WIyWlLk6GJQsqaUBKTNV-1">
          <mxGeometry x="414" y="275" width="156" height="110" as="geometry" />
        </mxCell>
        <mxCell id="mQBNeWxecXQvB-bDdUXO-16" value="Game Ends -&amp;gt; 1. Reveal computers cards&lt;br&gt;2. print you win or loose" style="whiteSpace=wrap;html=1;rounded=1;shadow=0;strokeWidth=1;fillColor=none;glass=0;" vertex="1" parent="WIyWlLk6GJQsqaUBKTNV-1">
          <mxGeometry x="418" y="150" width="148" height="80" as="geometry" />
        </mxCell>
        <mxCell id="mQBNeWxecXQvB-bDdUXO-24" value="" style="edgeStyle=orthogonalEdgeStyle;rounded=0;orthogonalLoop=1;jettySize=auto;html=1;" edge="1" parent="WIyWlLk6GJQsqaUBKTNV-1" source="mQBNeWxecXQvB-bDdUXO-19" target="mQBNeWxecXQvB-bDdUXO-23">
          <mxGeometry relative="1" as="geometry" />
        </mxCell>
        <mxCell id="mQBNeWxecXQvB-bDdUXO-25" value="Yes" style="edgeLabel;html=1;align=center;verticalAlign=middle;resizable=0;points=[];" vertex="1" connectable="0" parent="mQBNeWxecXQvB-bDdUXO-24">
          <mxGeometry x="-0.3818" relative="1" as="geometry">
            <mxPoint as="offset" />
          </mxGeometry>
        </mxCell>
        <mxCell id="mQBNeWxecXQvB-bDdUXO-19" value="&lt;br&gt;&lt;span&gt;3 ask if user wants to get another card. -&amp;gt; Print Type &#39;y&#39; to get another card, type &#39;n&#39; to pass:&amp;nbsp;&lt;/span&gt;" style="rhombus;whiteSpace=wrap;html=1;rounded=1;shadow=0;strokeWidth=1;glass=0;" vertex="1" parent="WIyWlLk6GJQsqaUBKTNV-1">
          <mxGeometry x="125" y="275" width="190" height="120" as="geometry" />
        </mxCell>
        <mxCell id="mQBNeWxecXQvB-bDdUXO-27" value="" style="edgeStyle=orthogonalEdgeStyle;rounded=0;orthogonalLoop=1;jettySize=auto;html=1;" edge="1" parent="WIyWlLk6GJQsqaUBKTNV-1" source="mQBNeWxecXQvB-bDdUXO-23" target="mQBNeWxecXQvB-bDdUXO-26">
          <mxGeometry relative="1" as="geometry" />
        </mxCell>
        <mxCell id="mQBNeWxecXQvB-bDdUXO-23" value="Select one random card and add to player&#39;s hand." style="rhombus;whiteSpace=wrap;html=1;rounded=1;shadow=0;strokeWidth=1;glass=0;" vertex="1" parent="WIyWlLk6GJQsqaUBKTNV-1">
          <mxGeometry x="180" y="450" width="80" height="80" as="geometry" />
        </mxCell>
        <mxCell id="mQBNeWxecXQvB-bDdUXO-26" value="Add players cards." style="rhombus;whiteSpace=wrap;html=1;rounded=1;shadow=0;strokeWidth=1;glass=0;" vertex="1" parent="WIyWlLk6GJQsqaUBKTNV-1">
          <mxGeometry x="180" y="560" width="80" height="80" as="geometry" />
        </mxCell>
        <mxCell id="mQBNeWxecXQvB-bDdUXO-28" value="" style="endArrow=classic;html=1;rounded=0;entryX=0;entryY=0.5;entryDx=0;entryDy=0;exitX=0;exitY=0.5;exitDx=0;exitDy=0;edgeStyle=orthogonalEdgeStyle;" edge="1" parent="WIyWlLk6GJQsqaUBKTNV-1" source="mQBNeWxecXQvB-bDdUXO-26" target="mQBNeWxecXQvB-bDdUXO-19">
          <mxGeometry width="50" height="50" relative="1" as="geometry">
            <mxPoint x="390" y="460" as="sourcePoint" />
            <mxPoint x="440" y="410" as="targetPoint" />
          </mxGeometry>
        </mxCell>
        <mxCell id="mQBNeWxecXQvB-bDdUXO-29" value="&amp;lt; 21" style="edgeLabel;html=1;align=center;verticalAlign=middle;resizable=0;points=[];" vertex="1" connectable="0" parent="mQBNeWxecXQvB-bDdUXO-28">
          <mxGeometry x="-0.12" y="-1" relative="1" as="geometry">
            <mxPoint as="offset" />
          </mxGeometry>
        </mxCell>
        <mxCell id="mQBNeWxecXQvB-bDdUXO-30" value="" style="endArrow=classic;html=1;rounded=0;exitX=1;exitY=0.5;exitDx=0;exitDy=0;entryX=0;entryY=1;entryDx=0;entryDy=0;edgeStyle=elbowEdgeStyle;" edge="1" parent="WIyWlLk6GJQsqaUBKTNV-1" source="mQBNeWxecXQvB-bDdUXO-26" target="mQBNeWxecXQvB-bDdUXO-14">
          <mxGeometry width="50" height="50" relative="1" as="geometry">
            <mxPoint x="390" y="450" as="sourcePoint" />
            <mxPoint x="440" y="400" as="targetPoint" />
          </mxGeometry>
        </mxCell>
        <mxCell id="mQBNeWxecXQvB-bDdUXO-31" value="&amp;gt; 21" style="edgeLabel;html=1;align=center;verticalAlign=middle;resizable=0;points=[];" vertex="1" connectable="0" parent="mQBNeWxecXQvB-bDdUXO-30">
          <mxGeometry x="-0.1751" y="-1" relative="1" as="geometry">
            <mxPoint as="offset" />
          </mxGeometry>
        </mxCell>
        <mxCell id="mQBNeWxecXQvB-bDdUXO-32" value="" style="edgeStyle=orthogonalEdgeStyle;rounded=0;orthogonalLoop=1;jettySize=auto;html=1;" edge="1" parent="WIyWlLk6GJQsqaUBKTNV-1" target="mQBNeWxecXQvB-bDdUXO-34">
          <mxGeometry relative="1" as="geometry">
            <mxPoint x="492" y="380" as="sourcePoint" />
          </mxGeometry>
        </mxCell>
        <mxCell id="mQBNeWxecXQvB-bDdUXO-33" value="&amp;lt; 17 and&lt;br&gt;player &amp;lt; 21" style="edgeLabel;html=1;align=center;verticalAlign=middle;resizable=0;points=[];" vertex="1" connectable="0" parent="mQBNeWxecXQvB-bDdUXO-32">
          <mxGeometry x="-0.3818" relative="1" as="geometry">
            <mxPoint as="offset" />
          </mxGeometry>
        </mxCell>
        <mxCell id="mQBNeWxecXQvB-bDdUXO-34" value="Select one random card and add to computer&#39;s hand." style="rhombus;whiteSpace=wrap;html=1;rounded=1;shadow=0;strokeWidth=1;glass=0;" vertex="1" parent="WIyWlLk6GJQsqaUBKTNV-1">
          <mxGeometry x="443" y="440" width="98" height="85" as="geometry" />
        </mxCell>
        <mxCell id="mQBNeWxecXQvB-bDdUXO-35" value="" style="endArrow=classic;html=1;rounded=0;exitX=1;exitY=0.5;exitDx=0;exitDy=0;edgeStyle=elbowEdgeStyle;entryX=1;entryY=0.5;entryDx=0;entryDy=0;" edge="1" parent="WIyWlLk6GJQsqaUBKTNV-1" source="mQBNeWxecXQvB-bDdUXO-37" target="mQBNeWxecXQvB-bDdUXO-34">
          <mxGeometry width="50" height="50" relative="1" as="geometry">
            <mxPoint x="566" y="525" as="sourcePoint" />
            <mxPoint x="759" y="272.5" as="targetPoint" />
            <Array as="points">
              <mxPoint x="570" y="493" />
            </Array>
          </mxGeometry>
        </mxCell>
        <mxCell id="mQBNeWxecXQvB-bDdUXO-36" value="&amp;lt; 17" style="edgeLabel;html=1;align=center;verticalAlign=middle;resizable=0;points=[];" vertex="1" connectable="0" parent="mQBNeWxecXQvB-bDdUXO-35">
          <mxGeometry x="-0.1751" y="-1" relative="1" as="geometry">
            <mxPoint as="offset" />
          </mxGeometry>
        </mxCell>
        <mxCell id="mQBNeWxecXQvB-bDdUXO-37" value="Add computers cards." style="rhombus;whiteSpace=wrap;html=1;rounded=1;shadow=0;strokeWidth=1;glass=0;" vertex="1" parent="WIyWlLk6GJQsqaUBKTNV-1">
          <mxGeometry x="452" y="550" width="80" height="80" as="geometry" />
        </mxCell>
        <mxCell id="mQBNeWxecXQvB-bDdUXO-38" value="" style="edgeStyle=orthogonalEdgeStyle;rounded=0;orthogonalLoop=1;jettySize=auto;html=1;exitX=0.5;exitY=1;exitDx=0;exitDy=0;" edge="1" parent="WIyWlLk6GJQsqaUBKTNV-1" source="mQBNeWxecXQvB-bDdUXO-34" target="mQBNeWxecXQvB-bDdUXO-37">
          <mxGeometry relative="1" as="geometry">
            <mxPoint x="230" y="540" as="sourcePoint" />
            <mxPoint x="230" y="580" as="targetPoint" />
          </mxGeometry>
        </mxCell>
        <mxCell id="mQBNeWxecXQvB-bDdUXO-39" value="" style="endArrow=classic;html=1;rounded=0;edgeStyle=elbowEdgeStyle;" edge="1" parent="WIyWlLk6GJQsqaUBKTNV-1" source="mQBNeWxecXQvB-bDdUXO-37" target="mQBNeWxecXQvB-bDdUXO-16">
          <mxGeometry width="50" height="50" relative="1" as="geometry">
            <mxPoint x="542" y="600" as="sourcePoint" />
            <mxPoint x="551" y="492.5" as="targetPoint" />
            <Array as="points">
              <mxPoint x="640" y="390" />
            </Array>
          </mxGeometry>
        </mxCell>
        <mxCell id="mQBNeWxecXQvB-bDdUXO-40" value="&amp;gt; 17" style="edgeLabel;html=1;align=center;verticalAlign=middle;resizable=0;points=[];" vertex="1" connectable="0" parent="mQBNeWxecXQvB-bDdUXO-39">
          <mxGeometry x="-0.1751" y="-1" relative="1" as="geometry">
            <mxPoint as="offset" />
          </mxGeometry>
        </mxCell>
      </root>
    </mxGraphModel>
  </diagram>
</mxfile>
